<?xml version="1.0" encoding="utf-8"?>
<!-- Generator: Adobe Illustrator 23.0.3, SVG Export Plug-In . SVG Version: 6.00 Build 0)  -->
<svg version="1.1" xmlns="http://www.w3.org/2000/svg" xmlns:xlink="http://www.w3.org/1999/xlink" x="0px" y="0px"
	 viewBox="0 0 1400 1400" style="enable-background:new 0 0 1400 1400;" xml:space="preserve">
<style type="text/css">
	.st0{fill:#FFFFFF;}
	.st1{fill:#ECEFF1;}
	.st2{fill:#F99715;}
	.st3{fill:#6D4C41;}
	.st4{fill:#5D4037;}
	.st5{fill:#E53935;}
	.st6{fill:#43A047;}
	.st7{fill:#D32F2F;}
	.st8{fill:#FBB426;}
	.st9{fill:#FFCA28;}
	.st10{fill:#F9A825;}
	.st11{fill:#FFF59D;}
</style>
<g id="background">
	<rect class="st0" width="1400" height="1400"/>
</g>
<g id="objects">
	<ellipse class="st1" cx="700" cy="1018.45" rx="519.14" ry="60.57"/>
	<g>
		<path class="st2" d="M1068.51,628.33H335.99c-28.44,0-51.49-23.05-51.49-51.49v0c0-169.1,137.08-306.18,306.18-306.18h223.13
			c169.1,0,306.18,137.08,306.18,306.18v0C1120,605.28,1096.95,628.33,1068.51,628.33z"/>
		<path class="st3" d="M1082.5,792.09H322c-20.71,0-37.5-16.79-37.5-37.5v-4.93c0-20.71,16.79-37.5,37.5-37.5h760.5
			c20.71,0,37.5,16.79,37.5,37.5v4.93C1120,775.3,1103.21,792.09,1082.5,792.09z"/>
		<path class="st4" d="M1100.35,716.68c5.7,6.58,9.15,15.15,9.15,24.53v4.93c0,20.71-16.79,37.5-37.5,37.5H311.5
			c-6.46,0-12.54-1.64-17.85-4.51c6.88,7.94,17.02,12.97,28.35,12.97h760.5c20.71,0,37.5-16.79,37.5-37.5v-4.93
			C1120,735.41,1112.05,723.02,1100.35,716.68z"/>
		<path class="st5" d="M319.66,710.97c0,0-6.38,20.37,20.26,18.24c26.64-2.13,45.82,1.07,45.82,17.05
			c0,15.99,15.99,43.69,19.18,22.38c3.2-21.31,9.59-42.63,33.04-39.43c23.45,3.2,20.25,19.18,39.43,14.92
			c19.18-4.26,30.9-27.71,44.76-21.31c13.85,6.39,98.04-7.46,122.55-1.07c24.51,6.39,263.23,2.13,269.62,7.46
			c6.39,5.33,31.97-13.85,53.28-9.59s22.38,26.64,33.04,37.3c10.66,10.66,8.53-26.64,23.45-27.71c14.92-1.07,6.39,21.31,23.45,14.92
			c17.05-6.39,53.15-34.13,40.31-33.16C1072.04,712.16,319.66,710.97,319.66,710.97z"/>
		<path class="st3" d="M1080.5,712.16H324c-21.82,0-39.5-17.68-39.5-39.5v-5.19c0-21.82,17.68-39.5,39.5-39.5h756.5
			c21.82,0,39.5,17.68,39.5,39.5v5.19C1120,694.48,1102.32,712.16,1080.5,712.16z"/>
		<path class="st4" d="M1099.64,632.92c3.17,5.68,4.98,12.23,4.98,19.19v5.19c0,21.82-17.68,39.5-39.5,39.5h-756.5
			c-6.95,0-13.47-1.8-19.14-4.95c6.75,12.11,19.67,20.31,34.52,20.31h756.5c21.82,0,39.5-17.68,39.5-39.5v-5.19
			C1120,652.6,1111.78,639.66,1099.64,632.92z"/>
		<path class="st6" d="M331.95,627.97c0,0,6.9,15.99,21.82,20.25s36.23-10.66,56.48-8.53c20.25,2.13,30.9,25.58,50.09,18.12
			s27.71-24.51,50.09-19.18c22.38,5.33,26.64,33.04,79.93,14.92c53.28-18.12,90.58,24.51,126.82,15.99
			c36.23-8.53,22.38-36.23,84.19-27.71s70.34,31.97,100.17,15.99s52.22-20.25,88.45-8.53s52.22,10.66,69.27,0
			c17.05-10.66,19.18-21.31,19.18-21.31H331.95z"/>
		<path class="st5" d="M1097.44,843.24H311.32c-6.66,0-12.06-5.4-12.06-12.06v-27.03c0-6.66,5.4-12.06,12.06-12.06h786.11
			c6.66,0,12.06,5.4,12.06,12.06v27.03C1109.5,837.84,1104.1,843.24,1097.44,843.24z"/>
		<path class="st7" d="M1097.44,792.09H311.32c-6.55,0-11.86,5.22-12.04,11.72h783.4c6.66,0,12.06,5.4,12.06,12.06v27.03
			c0,0.11-0.01,0.23-0.02,0.34h2.72c6.66,0,12.06-5.4,12.06-12.06v-27.03C1109.5,797.49,1104.1,792.09,1097.44,792.09z"/>
		<path class="st8" d="M997.55,1019.08H411.21c-67.63,0-122.45-54.82-122.45-122.45v-16.5c0-20.37,16.52-36.89,36.89-36.89h757.46
			c20.37,0,36.89,16.52,36.89,36.89v16.5C1120,964.26,1065.18,1019.08,997.55,1019.08z"/>
		<path class="st9" d="M537,712.16c4,2,198.29,82.06,260.1,142.8c0,0,121.31-126.82,153.9-142.8H537z"/>
		<path class="st10" d="M920.87,712.16c-37.19,27.19-117.11,109.18-137.71,130.51c5.16,4.16,9.84,8.27,13.94,12.3
			c0,0,121.31-126.82,153.9-142.8H920.87z"/>
		<path class="st8" d="M849.39,272.73c-11.67-1.35-23.54-2.07-35.58-2.07H590.68c-169.1,0-306.18,137.08-306.18,306.18v0
			c0,7.3,1.53,14.24,4.27,20.54C972.31,609.31,1059.51,525.45,849.39,272.73z"/>
		<path class="st2" d="M997.55,1019.08c67.63,0,122.45-54.82,122.45-122.45v-16.5c0-20.37-16.52-36.89-36.89-36.89H955.29
			c-19.89,66.37-136.52,157.3-656.02,103.06c19.05,42.87,62.01,72.78,111.95,72.78H997.55z"/>
		<path class="st10" d="M797.1,854.96c0,0,1.46-1.52,4.09-4.26l2.82-5.8c-73.3-78.05-210.53-124.79-235.21-132.74H537
			C541,714.16,735.29,794.22,797.1,854.96z"/>
		<path class="st11" d="M320.53,547.4L320.53,547.4c-1.49-2.14-0.97-5.08,1.17-6.58l22.07-15.38c2.14-1.49,5.08-0.97,6.58,1.17l0,0
			c1.49,2.14,0.97,5.08-1.17,6.58l-22.07,15.38C324.96,550.07,322.02,549.54,320.53,547.4z"/>
		<path class="st11" d="M405.09,368.63L405.09,368.63c2.08-1.57,5.04-1.16,6.62,0.92l16.22,21.46c1.57,2.08,1.16,5.04-0.92,6.62v0
			c-2.08,1.57-5.04,1.16-6.62-0.92l-16.22-21.46C402.59,373.17,403.01,370.2,405.09,368.63z"/>
		<path class="st11" d="M349.78,479.78L349.78,479.78c-1.49-2.14-0.97-5.08,1.17-6.58l22.07-15.38c2.14-1.49,5.08-0.97,6.58,1.17v0
			c1.49,2.14,0.97,5.08-1.17,6.58l-22.07,15.38C354.22,482.45,351.27,481.92,349.78,479.78z"/>
		<path class="st11" d="M401.13,565.16L401.13,565.16c-1.49-2.14-0.97-5.08,1.17-6.58l22.07-15.38c2.14-1.49,5.08-0.97,6.58,1.17
			l0,0c1.49,2.14,0.97,5.08-1.17,6.58l-22.07,15.38C405.57,567.82,402.62,567.3,401.13,565.16z"/>
		<path class="st11" d="M632.38,521.11L632.38,521.11c-1.49-2.14-0.97-5.08,1.17-6.58l22.07-15.38c2.14-1.49,5.08-0.97,6.58,1.17
			l0,0c1.49,2.14,0.97,5.08-1.17,6.58l-22.07,15.38C636.82,523.77,633.87,523.25,632.38,521.11z"/>
		<path class="st11" d="M446.41,452.31L446.41,452.31c-1.49-2.14-0.97-5.08,1.17-6.58l22.07-15.38c2.14-1.49,5.08-0.97,6.58,1.17
			l0,0c1.49,2.14,0.97,5.08-1.17,6.58l-22.07,15.38C450.85,454.98,447.9,454.45,446.41,452.31z"/>
		<path class="st11" d="M796.66,557.98L796.66,557.98c2.08-1.57,5.04-1.16,6.62,0.92l16.22,21.46c1.57,2.08,1.16,5.04-0.92,6.62h0
			c-2.08,1.57-5.04,1.16-6.62-0.92l-16.22-21.46C794.16,562.52,794.57,559.55,796.66,557.98z"/>
		<path class="st11" d="M512.1,538.01L512.1,538.01c-1.49-2.14-0.97-5.08,1.17-6.58l22.07-15.38c2.14-1.49,5.08-0.97,6.58,1.17h0
			c1.49,2.14,0.97,5.08-1.17,6.58l-22.07,15.38C516.54,540.67,513.59,540.15,512.1,538.01z"/>
		<path class="st11" d="M413.34,467.92L413.34,467.92c2.08-1.57,5.04-1.16,6.62,0.92l16.22,21.46c1.57,2.08,1.16,5.04-0.92,6.62v0
			c-2.08,1.57-5.04,1.16-6.62-0.92l-16.22-21.46C410.84,472.46,411.26,469.49,413.34,467.92z"/>
		<path class="st11" d="M494.53,373.17L494.53,373.17c-1.49-2.14-0.97-5.08,1.17-6.58l22.07-15.38c2.14-1.49,5.08-0.97,6.58,1.17v0
			c1.49,2.14,0.97,5.08-1.17,6.58l-22.07,15.38C498.97,375.84,496.02,375.31,494.53,373.17z"/>
		<path class="st11" d="M553.14,400.34L553.14,400.34c2.08-1.57,5.04-1.16,6.62,0.92l16.22,21.46c1.57,2.08,1.16,5.04-0.92,6.62v0
			c-2.08,1.57-5.04,1.16-6.62-0.92l-16.22-21.46C550.65,404.88,551.06,401.92,553.14,400.34z"/>
		<path class="st11" d="M646.34,560.43L646.34,560.43c2.08-1.57,5.04-1.16,6.62,0.92l16.22,21.46c1.57,2.08,1.16,5.04-0.92,6.62h0
			c-2.08,1.57-5.04,1.16-6.62-0.92l-16.22-21.46C643.85,564.96,644.26,562,646.34,560.43z"/>
		<path class="st11" d="M707.57,369.86L707.57,369.86c-1.49-2.14-0.97-5.08,1.17-6.58l22.07-15.38c2.14-1.49,5.08-0.97,6.58,1.17v0
			c1.49,2.14,0.97,5.08-1.17,6.58l-22.07,15.38C712.01,372.53,709.06,372,707.57,369.86z"/>
		<path class="st11" d="M591.24,308.09L591.24,308.09c2.08-1.57,5.04-1.16,6.62,0.92l16.22,21.46c1.57,2.08,1.16,5.04-0.92,6.62l0,0
			c-2.08,1.57-5.04,1.16-6.62-0.92l-16.22-21.46C588.75,312.62,589.16,309.66,591.24,308.09z"/>
		<path class="st11" d="M639.83,408.96L639.83,408.96c2.08-1.57,5.04-1.16,6.62,0.92l16.22,21.46c1.57,2.08,1.16,5.04-0.92,6.62h0
			c-2.08,1.57-5.04,1.16-6.62-0.92l-16.22-21.46C637.34,413.49,637.75,410.53,639.83,408.96z"/>
		<path class="st11" d="M805.26,343.97L805.26,343.97c2.08-1.57,5.04-1.16,6.62,0.92l16.22,21.46c1.57,2.08,1.16,5.04-0.92,6.62l0,0
			c-2.08,1.57-5.04,1.16-6.62-0.92l-16.22-21.46C802.76,348.51,803.18,345.54,805.26,343.97z"/>
		<path class="st11" d="M917.4,356.13L917.4,356.13c1.57,2.08,1.16,5.04-0.92,6.62l-21.46,16.22c-2.08,1.57-5.04,1.16-6.62-0.92v0
			c-1.57-2.08-1.16-5.04,0.92-6.62l21.46-16.22C912.87,353.64,915.83,354.05,917.4,356.13z"/>
		<path class="st11" d="M568.72,565.47L568.72,565.47c-1.49-2.14-0.97-5.08,1.17-6.58l22.07-15.38c2.14-1.49,5.08-0.97,6.58,1.17
			l0,0c1.49,2.14,0.97,5.08-1.17,6.58l-22.07,15.38C573.16,568.14,570.22,567.61,568.72,565.47z"/>
		<path class="st11" d="M952.67,462.88L952.67,462.88c1.57,2.08,1.16,5.04-0.92,6.62l-21.46,16.22c-2.08,1.57-5.04,1.16-6.62-0.92
			l0,0c-1.57-2.08-1.16-5.04,0.92-6.62l21.46-16.22C948.13,460.39,951.09,460.8,952.67,462.88z"/>
		<path class="st11" d="M831.37,427.42L831.37,427.42c2.08-1.57,5.04-1.16,6.62,0.92l16.22,21.46c1.57,2.08,1.16,5.04-0.92,6.62l0,0
			c-2.08,1.57-5.04,1.16-6.62-0.92l-16.22-21.46C828.87,431.96,829.28,428.99,831.37,427.42z"/>
		<path class="st11" d="M710.48,521.11L710.48,521.11c-1.49-2.14-0.97-5.08,1.17-6.58l22.07-15.38c2.14-1.49,5.08-0.97,6.58,1.17
			l0,0c1.49,2.14,0.97,5.08-1.17,6.58l-22.07,15.38C714.92,523.77,711.97,523.25,710.48,521.11z"/>
		<path class="st11" d="M843.55,499.76L843.55,499.76c1.57,2.08,1.16,5.04-0.92,6.62l-21.46,16.22c-2.08,1.57-5.04,1.16-6.62-0.92
			l0,0c-1.57-2.08-1.16-5.04,0.92-6.62l21.46-16.22C839.01,497.27,841.97,497.68,843.55,499.76z"/>
		<path class="st11" d="M918.4,582.87L918.4,582.87c-1.49-2.14-0.97-5.08,1.17-6.58l22.07-15.38c2.14-1.49,5.08-0.97,6.58,1.17l0,0
			c1.49,2.14,0.97,5.08-1.17,6.58l-22.07,15.38C922.84,585.54,919.89,585.01,918.4,582.87z"/>
		<path class="st11" d="M992.16,523.96L992.16,523.96c2.08-1.57,5.04-1.16,6.62,0.92l16.22,21.46c1.57,2.08,1.16,5.04-0.92,6.62l0,0
			c-2.08,1.57-5.04,1.16-6.62-0.92l-16.22-21.46C989.67,528.49,990.08,525.53,992.16,523.96z"/>
		<path class="st11" d="M999.62,418.99L999.62,418.99c2.08-1.57,5.04-1.16,6.62,0.92l16.22,21.46c1.57,2.08,1.16,5.04-0.92,6.62l0,0
			c-2.08,1.57-5.04,1.16-6.62-0.92L998.7,425.6C997.13,423.52,997.54,420.56,999.62,418.99z"/>
	</g>
</g>
</svg>
